<?xml version="1.0" standalone="no"?>
<!DOCTYPE svg PUBLIC "-//W3C//DTD SVG 20010904//EN"
 "http://www.w3.org/TR/2001/REC-SVG-20010904/DTD/svg10.dtd">
<svg version="1.0" xmlns="http://www.w3.org/2000/svg"
 width="700.000000pt" height="700.000000pt" viewBox="0 0 700.000000 700.000000"
 preserveAspectRatio="xMidYMid meet">
<metadata>
Created by potrace 1.11, written by Peter Selinger 2001-2013
</metadata>
<g transform="translate(0.000000,700.000000) scale(0.100000,-0.100000)"
fill="#000000" stroke="none">
<path d="M1960 6117 c-189 -26 -353 -146 -437 -318 -23 -46 -47 -110 -53 -141
-15 -76 -16 -3942 -1 -4038 15 -99 20 -116 47 -188 112 -300 344 -483 694
-549 76 -14 2253 -9 2330 6 221 43 423 169 546 342 53 74 114 199 129 265 2
11 9 37 14 59 5 22 12 74 16 115 4 41 7 76 8 77 1 0 61 2 132 4 234 5 417 64
600 194 213 151 380 419 421 675 10 64 12 1645 2 1729 -50 421 -389 790 -803
876 -106 21 -127 24 -247 24 l-108 1 0 178 c0 250 -22 333 -124 468 -75 100
-186 175 -312 210 -54 15 -185 17 -1429 18 -754 1 -1395 -2 -1425 -7z m2681
-577 l26 0 -1 -145 0 -145 -641 0 -641 0 -19 -52 c-35 -98 -75 -148 -155 -190
-40 -20 -58 -23 -169 -23 l-125 0 -48 -70 c-63 -92 -108 -139 -172 -180 -197
-126 -451 -64 -583 143 -62 96 -67 128 -68 407 l0 250 130 5 c93 4 1977 4
2466 0z m25 -2210 c0 -1327 -2 -1633 -13 -1670 -17 -58 -53 -112 -97 -145 -75
-57 -38 -56 -1200 -55 -730 0 -1081 3 -1110 11 -75 19 -133 67 -169 139 l-32
65 -2 1423 -1 1423 26 -17 c82 -54 194 -103 252 -111 19 -2 49 -8 65 -12 34
-8 122 -6 199 3 138 18 306 108 422 224 49 49 68 62 92 62 149 0 352 115 436
248 l25 40 553 -2 553 -1 1 -1625z m865 1311 c160 -61 277 -204 296 -361 8
-61 8 -1515 0 -1565 -15 -99 -69 -199 -144 -265 -52 -45 -127 -90 -153 -90 -9
0 -20 -3 -24 -7 -12 -13 -40 -14 -293 -17 l-253 -3 -1 36 c0 48 0 2284 0 2292
1 3 117 5 259 4 236 -2 261 -4 313 -24z"/>
<path d="M2725 4074 c-50 -17 -85 -52 -94 -95 -4 -19 -7 -439 -6 -934 1 -816
2 -903 17 -931 25 -47 63 -67 127 -67 62 -1 97 16 128 61 17 26 18 75 19 932
0 498 -3 920 -7 939 -17 75 -107 122 -184 95z"/>
<path d="M3334 4080 c-23 -3 -54 -14 -69 -24 -57 -37 -55 -6 -55 -992 0 -653
3 -916 11 -939 18 -48 71 -80 134 -79 60 0 97 20 125 67 19 31 20 58 20 933 0
496 -3 916 -6 933 -8 38 -52 85 -91 98 -15 5 -47 6 -69 3z"/>
<path d="M3897 4077 c-40 -10 -88 -53 -99 -89 -3 -13 -6 -430 -7 -928 -1 -843
0 -907 17 -939 28 -55 64 -76 131 -75 64 1 97 19 127 69 17 28 18 85 18 945 0
842 -2 918 -17 947 -31 58 -100 87 -170 70z"/>
</g>
</svg>
